<?xml version="1.0" encoding="UTF-8"?>
<svg class="gb_We" focusable="false" viewBox="0 0 24 24" xmlns="http://www.w3.org/2000/svg" style="fill: #5f6368;">
<path d="m6 8c1.1 0 2-0.9 2-2s-0.9-2-2-2-2 0.9-2 2 0.9 2 2 2zm6 12c1.1 0 2-0.9 2-2s-0.9-2-2-2-2 0.9-2 2 0.9 2 2 2zm-6 0c1.1 0 2-0.9 2-2s-0.9-2-2-2-2 0.9-2 2 0.9 2 2 2zm0-6c1.1 0 2-0.9 2-2s-0.9-2-2-2-2 0.9-2 2 0.9 2 2 2zm6 0c1.1 0 2-0.9 2-2s-0.9-2-2-2-2 0.9-2 2 0.9 2 2 2zm4-8c0 1.1 0.9 2 2 2s2-0.9 2-2-0.9-2-2-2-2 0.9-2 2zm-4 2c1.1 0 2-0.9 2-2s-0.9-2-2-2-2 0.9-2 2 0.9 2 2 2zm6 6c1.1 0 2-0.9 2-2s-0.9-2-2-2-2 0.9-2 2 0.9 2 2 2zm0 6c1.1 0 2-0.9 2-2s-0.9-2-2-2-2 0.9-2 2 0.9 2 2 2z"/>
</svg>
